<svg xmlns="http://www.w3.org/2000/svg" width="284" height="284" fill="none" viewBox="0 0 284 284"><path fill="#fff" fill-rule="evenodd" d="M235.855 143.883C235.687 141.268 235.532 138.644 235.226 136.025C234.282 127.896 232.192 120.077 228.932 112.569C224.417 102.183 218.076 93.0546 210.006 85.1126C208.772 83.8984 207.395 82.8355 206.288 81.4899C205.755 80.845 205.301 80.1603 205.106 79.3283C204.807 78.0345 205.743 77.099 207.041 77.3498C208.748 77.6842 210.026 78.7431 211.145 79.9334C214.457 83.4605 217.347 87.33 220.074 91.3189C225.791 99.6669 230.321 108.592 233.199 118.322C235.321 125.495 236.476 132.804 236.217 140.304C236.177 141.499 236.082 142.685 235.855 143.883Z" clip-rule="evenodd"/><path fill="#fff" fill-rule="evenodd" d="M70.5262 76.8719C68.6194 78.9619 66.6806 81.016 64.8534 83.1737C55.9918 93.6476 50.096 105.602 47.0307 118.962C45.5259 125.523 44.7855 132.167 44.8412 138.903C44.8492 139.982 44.7337 141.049 44.3993 142.076C44.2401 142.565 44.0132 143.023 43.631 143.385C42.8229 144.142 41.76 143.975 41.1787 143.035C40.2631 141.546 40.1556 139.882 40.283 138.238C40.7448 132.37 41.8993 126.618 43.3882 120.933C46.0912 110.614 50.1796 100.905 56.2227 92.0751C59.9767 86.5894 64.316 81.6331 69.6026 77.5566C69.9052 77.3178 70.2157 77.0988 70.5262 76.8719Z" clip-rule="evenodd"/><path fill="#fff" fill-rule="evenodd" d="M103.568 237.977C108.528 239.84 113.584 241.372 118.799 242.336C132.39 244.852 145.794 244.02 159.027 240.075C162.888 238.924 166.63 237.471 170.305 235.823C171.487 235.289 172.717 234.907 174.055 235.055C174.743 235.134 175.241 235.457 175.516 236.102C175.735 236.615 175.687 237.065 175.36 237.539C174.333 239.012 172.824 239.824 171.228 240.397C166.443 242.105 161.507 243.271 156.523 244.211C149.102 245.608 141.622 246.265 134.062 245.954C128.158 245.708 122.338 244.899 116.626 243.379C112.231 242.208 107.995 240.628 103.974 238.482C103.783 238.379 103.6 238.251 103.413 238.14C103.381 237.992 103.413 237.921 103.568 237.977Z" clip-rule="evenodd"/><path fill="#FEFEFE" fill-rule="evenodd" d="M159.48 134.217C157.152 133.441 154.882 132.868 152.593 132.394C151.061 132.076 149.5 131.912 147.952 131.666C145.392 131.259 142.808 131.164 140.233 131.152C138.696 131.148 137.139 131.2 135.591 131.323C133.998 131.451 132.41 131.618 130.83 131.821C128.68 132.095 126.55 132.454 124.456 133.051C122.808 133.521 121.12 133.831 119.52 134.464C119.221 134.584 119.138 134.444 119.098 134.181C118.787 132.247 118.509 130.308 118.353 128.353C118.298 127.653 118.166 126.964 118.083 126.267C118.059 126.056 118.047 125.893 118.361 125.798C120.336 125.189 121.9 123.891 123.441 122.605C126.2 120.3 128.541 117.601 130.467 114.563C131.439 113.031 132.175 111.367 132.247 109.543C132.354 106.86 131.208 105.228 128.588 104.149C126.013 103.09 123.349 104.862 122.227 106.86C121.61 107.959 120.746 108.608 119.679 109.102C119.042 109.396 118.377 109.623 117.696 109.81C117.199 109.95 116.96 109.782 116.956 109.305C116.952 107.501 116.96 105.698 116.976 103.895C116.976 103.48 117.036 103.07 117.044 102.656C117.099 99.4518 117.342 96.2631 117.744 93.0783C118.031 90.8012 118.254 88.5162 118.747 86.2749C119.564 82.5726 120.527 78.9062 121.773 75.3273C123.031 71.7286 124.548 68.2253 126.666 65.0246C128.015 62.9864 129.54 61.1034 131.65 59.7857C133.23 58.8024 134.922 58.2093 136.817 58.3168C137.768 58.3725 138.604 58.7985 139.409 59.2204C143.393 61.3104 146.232 64.5748 148.672 68.2771C150.822 71.5375 152.394 75.0725 153.728 78.7071C155.034 82.2661 155.917 85.9564 156.749 89.6587C157.307 92.1109 157.661 94.595 158.103 97.0632C158.461 99.0577 158.72 101.072 158.939 103.098C159.19 105.431 159.433 107.764 159.616 110.101C159.699 111.235 159.823 112.374 159.867 113.504C160.018 117.326 160.201 121.152 160.05 124.978C159.926 128.031 159.675 131.076 159.48 134.217Z" clip-rule="evenodd"/><path fill="#FEFEFE" fill-rule="evenodd" d="M137.334 173.366C134.826 175.312 132.191 177.032 129.567 178.808C127.386 176.125 124.285 174.926 121.116 173.843C119.309 173.226 117.465 172.745 115.578 172.446C113.035 172.048 110.459 171.765 108.019 172.84C105.399 173.987 104.281 175.715 104.615 178.537C104.906 180.965 107.175 182.984 109.504 183.051C111.824 183.119 113.484 184.238 114.858 185.946C115.602 186.869 115.555 186.857 114.404 187.383C112.593 188.203 110.813 189.094 109.01 189.926C106.808 190.934 104.551 191.817 102.318 192.753C100.045 193.704 97.708 194.473 95.3831 195.277C91.4301 196.646 87.3616 197.578 83.2453 198.263C80.2436 198.76 77.1942 198.907 74.1608 198.708C70.3709 198.458 66.7204 197.665 63.2849 195.902C60.5062 194.477 59.3955 192.168 59.2283 189.262C59.073 186.626 59.9608 184.19 61.0237 181.845C62.6041 178.358 64.8295 175.265 67.1981 172.275C69.7618 169.039 72.6719 166.136 75.6337 163.278C77.1186 161.849 78.7707 160.607 80.375 159.313C83.0821 157.136 85.9961 155.253 88.8584 153.302C90.5423 152.155 92.3138 151.132 94.0893 150.137C95.4468 149.377 96.7605 148.545 98.134 147.816C101.542 146.005 104.937 144.178 108.441 142.549C110.793 141.455 113.158 140.38 115.527 139.325C116.773 138.767 116.785 138.748 117.095 140.057C117.772 142.908 118.648 145.706 119.77 148.405C121.486 152.53 123.25 156.642 125.682 160.424C127.529 163.294 129.798 165.818 132.107 168.314C133.747 170.082 135.447 171.773 137.334 173.366Z" clip-rule="evenodd"/><path fill="#FEFEFE" fill-rule="evenodd" d="M142.573 173.207C153.684 164.19 160.563 152.824 162.187 138.461C163.636 138.859 164.99 139.512 166.355 140.105C167.984 140.814 169.584 141.582 171.2 142.303C171.539 142.454 171.646 142.565 171.527 142.979C170.926 145.057 171.2 147.155 171.499 149.245C171.897 152.044 172.789 154.703 173.844 157.303C174.875 159.839 176.224 162.199 178.513 163.839C181.527 165.993 184.652 164.468 186.109 162.008C187.044 160.424 187.084 158.608 186.101 157.02C184.911 155.105 185.01 153.182 185.579 151.164C185.679 150.798 185.814 150.44 185.946 150.038C188.223 151.443 190.496 152.836 192.721 154.305C195.293 156.005 197.793 157.8 200.225 159.691C201.985 161.061 203.665 162.53 205.293 164.074C207.371 166.045 209.346 168.119 211.225 170.269C213.557 172.936 215.687 175.762 217.487 178.832C219.103 181.59 220.389 184.477 220.799 187.665C221.069 189.775 220.715 191.845 219.537 193.669C218.705 194.95 217.359 195.639 216.022 196.284C213.764 197.375 211.36 198.032 208.9 198.406C206.3 198.8 203.661 198.888 201.041 198.685C198.856 198.517 196.686 198.195 194.517 197.789C191.344 197.204 188.251 196.392 185.193 195.424C182.407 194.54 179.668 193.509 176.957 192.403C173.318 190.922 169.703 189.405 166.164 187.705C159.659 184.584 153.453 180.953 147.522 176.853C146.021 175.814 144.556 174.727 143.079 173.652C142.908 173.541 142.76 173.378 142.573 173.207Z" clip-rule="evenodd"/><path fill="#FEFEFE" fill-rule="evenodd" d="M140.117 134.468C144.281 134.365 148.373 134.886 152.454 135.734C154.524 136.164 156.526 136.753 158.541 137.37C159.042 137.525 159.102 137.804 159.046 138.222C158.867 139.647 158.688 141.068 158.389 142.49C157.868 144.942 157.136 147.307 156.208 149.62C154.409 154.118 152.251 158.441 149.146 162.191C146.463 165.428 143.513 168.421 140.217 171.065C139.89 171.324 139.711 171.312 139.42 171.069C137.04 169.082 134.894 166.873 132.923 164.484C131.578 162.852 130.264 161.208 129.094 159.444C127.199 156.59 125.515 153.62 124.102 150.495C122.8 147.609 121.618 144.695 120.805 141.626C120.515 140.531 120.2 139.44 119.874 138.357C119.731 137.884 119.866 137.669 120.328 137.529C123.911 136.439 127.541 135.547 131.263 135.041C134.201 134.643 137.147 134.388 140.117 134.468Z" clip-rule="evenodd"/><path fill="#FEFEFE" fill-rule="evenodd" d="M213.112 200.886C216.065 199.907 218.904 198.86 221.137 196.674C222.773 195.074 223.621 193.087 223.932 190.846C224.378 187.634 223.745 184.604 222.511 181.638C222.1 180.659 221.678 179.692 221.149 178.716C222.049 178.657 222.905 178.577 223.764 178.545C226.404 178.457 229.035 178.243 231.659 177.968C233.08 177.821 234.517 177.781 235.934 177.641C237.423 177.498 238.912 177.323 240.397 177.148C242.168 176.937 243.96 176.785 245.767 177.02C246.735 177.148 247.654 177.407 248.582 177.653C249.171 177.813 249.613 178.207 249.999 178.633C250.238 178.887 250.345 179.214 250.174 179.632C249.553 181.176 248.713 182.59 247.698 183.895C245.52 186.702 242.845 188.995 240.023 191.101C237.399 193.052 234.696 194.915 231.766 196.392C231.185 196.682 231.089 196.969 231.265 197.574C232.049 200.277 232.128 203.012 231.706 205.795C231.221 208.995 230.241 212.017 228.721 214.855C227.562 217.013 226.36 219.163 224.593 220.902C224.031 221.456 223.454 222.005 222.546 222.037C221.85 222.057 221.364 221.806 221.002 221.265C220.166 220.014 219.7 218.617 219.533 217.128C219.155 213.768 218.466 210.488 216.985 207.435C215.89 205.17 214.66 202.972 213.112 200.886Z" clip-rule="evenodd"/><path fill="#FEFEFE" fill-rule="evenodd" d="M123.266 64.4434C119.687 58.7706 115.746 53.4481 111.9 48.0658C110.781 46.5013 109.85 44.8214 109.376 42.9384C109.185 42.178 108.994 41.4057 109.245 40.5857C109.567 39.5427 109.603 39.4949 110.738 39.4232C113.632 39.2401 116.434 39.7258 119.197 40.518C122.274 41.3978 125.224 42.596 128.091 44.0093C130.117 45.0045 132.135 46.0117 134.062 47.198C134.464 47.4448 134.846 47.397 135.173 47.0268C137.131 44.8055 139.611 43.3803 142.338 42.3413C145.165 41.2624 148.099 40.7768 151.112 40.5618C153.604 40.3866 156.041 40.5459 158.477 41.0355C159.106 41.1629 159.671 41.4416 160.205 41.776C161.017 42.2855 161.12 43.5833 160.424 44.6422C159.405 46.1868 158.051 47.405 156.562 48.4719C153.565 50.6216 151.315 53.4242 149.397 56.5253C148.505 57.9664 147.752 59.4832 146.968 61.0039C145.332 59.3399 143.525 57.8789 141.49 56.7124C140.029 55.8764 138.505 55.1559 136.801 55.1041C135.527 55.0643 134.257 55.2674 133.015 55.6376C130.742 56.3143 128.895 57.6718 127.243 59.2841C125.817 60.6735 124.607 62.2619 123.56 63.9657C123.469 64.117 123.381 64.2603 123.266 64.4434Z" clip-rule="evenodd"/><path fill="#FEFEFE" fill-rule="evenodd" d="M36.9909 177.813C38.2409 177.896 39.4869 178.231 40.6534 178.752C43.3684 179.958 46.0435 181.176 49.0332 181.682C51.5213 182.1 53.9935 182.207 56.4895 182.192C57.1902 182.188 57.2379 182.379 57.0429 182.992C56.4617 184.795 56.1153 186.65 56.0357 188.553C55.8725 192.55 57.4091 195.647 60.7292 197.92C63.8901 200.086 67.3973 201.149 71.1672 201.487C71.9674 201.559 72.0191 201.662 71.6171 202.383C68.297 208.35 65.0684 214.369 61.9872 220.464C61.1074 222.2 59.7539 223.629 58.1058 224.728C57.6957 225.003 57.2101 225.098 56.7443 225.225C56.1472 225.393 55.9083 224.975 55.6336 224.545C54.1965 222.292 53.3247 219.815 52.7554 217.216C52.1981 214.66 51.8955 212.08 51.7044 209.473C51.4974 206.674 51.6527 203.876 51.585 201.081C51.585 200.934 51.581 200.787 51.589 200.643C51.6567 199.405 51.6567 199.409 50.4186 199.007C46.8357 197.841 43.854 195.763 41.362 192.968C38.2728 189.509 36.139 185.516 34.8491 181.061C34.674 180.464 34.678 179.851 34.7695 179.254C34.9328 178.227 35.6015 177.809 36.9909 177.813Z" clip-rule="evenodd"/><path fill="#FEFEFE" fill-rule="evenodd" d="M167.363 191.814C169.126 192.554 170.762 193.342 172.426 194.047C174.855 195.074 177.295 196.077 179.775 196.981C180.169 197.124 180.265 197.232 180.094 197.685C179.349 199.672 179.393 201.674 180.177 203.645C180.563 204.616 181.423 205.317 181.75 206.332C181.857 206.678 182.028 206.997 182.104 207.363C182.239 208.024 182.14 208.649 181.642 209.099C181.192 209.501 180.651 209.167 180.217 208.995C178.72 208.398 177.418 207.475 176.212 206.408C174.389 204.791 172.693 203.064 171.483 200.926C170.814 199.744 170.165 198.553 169.612 197.307C168.879 195.647 168.127 194.003 167.498 192.299C167.45 192.164 167.422 192.029 167.363 191.814Z" clip-rule="evenodd"/><path fill="#FEFEFE" fill-rule="evenodd" d="M90.3951 148.561C86.2907 151.029 82.4531 153.64 78.715 156.515C77.2182 154.066 74.9769 152.983 72.1584 152.892C71.1234 152.856 70.0605 152.908 69.0573 152.53C68.488 152.315 68.074 151.932 68.0103 151.327C67.9466 150.762 68.3367 150.388 68.7826 150.101C69.2125 149.827 69.6345 149.536 70.0883 149.309C71.7842 148.457 73.6114 148.039 75.4506 147.597C77.1186 147.195 78.7867 147 80.4865 147.06C82.3217 147.128 84.141 147.386 85.9524 147.701C87.2342 147.92 88.5201 148.139 89.7979 148.37C89.9612 148.401 90.1204 148.473 90.3951 148.561Z" clip-rule="evenodd"/><path fill="#FEFEFE" fill-rule="evenodd" d="M162.47 104.786C162.048 103.859 162.12 102.871 162.024 101.932C161.865 100.296 161.566 98.6835 161.355 97.0553C161.116 95.244 160.73 93.4526 160.392 91.6532C160.32 91.291 160.507 91.2949 160.778 91.2432C162.685 90.8889 164.333 90.0688 165.675 88.6237C166.196 88.0584 166.367 87.3697 166.69 86.7328C167.231 85.6579 167.777 84.6189 169.05 84.2168C169.759 83.9899 170.133 84.1611 170.34 84.9016C170.782 86.5059 170.659 88.1062 170.296 89.7105C170.07 90.6938 169.882 91.6851 169.64 92.6684C168.947 95.4988 167.466 97.9272 165.846 100.288C164.791 101.825 163.664 103.309 162.47 104.786Z" clip-rule="evenodd"/><path fill="#FEFEFE" fill-rule="evenodd" d="M126.817 180.516C125.244 181.599 123.608 182.49 121.96 183.366C120.933 183.911 119.981 184.584 118.914 185.066C118.492 185.257 118.317 185.189 118.067 184.843C116.832 183.127 115.312 181.718 113.496 180.631C112.489 180.03 111.343 179.954 110.208 179.863C109.157 179.779 108.058 179.453 107.871 178.063C107.776 177.359 108.011 176.666 108.6 176.236C109.635 175.48 110.849 175.38 112.051 175.412C115.168 175.5 118.178 176.256 121.092 177.279C123.146 177.996 125.216 178.84 126.817 180.516Z" clip-rule="evenodd"/><path fill="#FEFEFE" fill-rule="evenodd" d="M174.616 143.947C176.483 144.986 178.39 145.826 180.177 146.904C180.926 147.354 181.726 147.713 182.502 148.107C182.916 148.318 183.071 148.545 182.872 149.062C182.307 150.531 182.036 152.08 181.897 153.644C181.742 155.388 182.395 156.901 183.171 158.397C183.692 159.401 183.573 160.559 182.833 161.029C181.754 161.714 180.95 161.761 179.855 160.834C178.692 159.858 177.984 158.557 177.335 157.215C176.26 155.006 175.563 152.665 174.986 150.3C174.56 148.537 174.313 146.729 174.441 144.902C174.465 144.596 174.556 144.297 174.616 143.947Z" clip-rule="evenodd"/><path fill="#FEFEFE" fill-rule="evenodd" d="M117.111 114.201C117.079 113.162 117.115 113.15 118.162 112.939C120.34 112.497 122.31 111.638 123.895 110.017C124.293 109.611 124.556 109.13 124.834 108.64C125.368 107.712 126.319 106.92 127.402 107.191C128.839 107.545 129.173 108.361 129.002 109.671C128.811 111.14 128.087 112.426 127.282 113.636C125.865 115.774 124.134 117.649 122.282 119.416C121.044 120.595 119.651 121.558 118.198 122.442C117.872 122.641 117.752 122.561 117.712 122.195C117.665 121.741 117.545 121.291 117.513 120.837C117.434 119.651 117.342 118.461 117.346 117.271C117.354 116.216 117.095 115.193 117.111 114.201Z" clip-rule="evenodd"/><path fill="#FEFEFE" fill-rule="evenodd" d="M209.477 163.708C212.443 164.043 215.197 164.293 217.817 165.356C219.003 165.834 220.062 166.463 221.065 167.231C222.025 167.964 222.518 169.027 223.08 170.046C223.275 170.396 222.972 170.512 222.713 170.611C222.009 170.882 221.26 170.842 220.552 170.742C219.035 170.535 217.538 170.217 215.998 170.488C215.763 170.528 215.564 170.464 215.373 170.237C213.537 168.039 211.607 165.926 209.477 163.708Z" clip-rule="evenodd"/><path fill="#FEFEFE" fill-rule="evenodd" d="M116.395 82.2581C115.073 79.5949 114.113 76.8639 113.731 73.9778C113.449 71.8201 113.994 69.7938 115.244 67.9785C115.499 67.6083 115.746 67.5684 116.068 67.875C116.59 68.3686 116.928 68.9697 117.199 69.6306C117.708 70.8766 118.027 72.2222 118.954 73.2612C119.189 73.52 118.982 73.7389 118.911 73.93C118.082 76.1434 117.422 78.4085 116.813 80.6856C116.677 81.1952 116.653 81.7326 116.395 82.2581Z" clip-rule="evenodd"/><path fill="#FEFEFE" fill-rule="evenodd" d="M68.3566 165.953C67.6002 167.064 66.6607 167.964 65.8167 168.935C64.7061 170.217 63.6909 171.57 62.6718 172.92C62.425 173.25 62.1901 173.266 61.8756 173.231C60.132 173.024 58.3963 172.944 56.7084 173.565C56.366 173.692 56.0276 173.752 55.7609 173.477C55.4982 173.207 55.7529 172.884 55.8684 172.673C56.573 171.415 57.5802 170.4 58.7386 169.568C60.8645 168.043 63.2132 167.032 65.7889 166.479C66.6288 166.288 67.4808 166.152 68.3566 165.953Z" clip-rule="evenodd"/><path fill="#FEFEFE" fill-rule="evenodd" d="M194.17 201.244C195.233 201.161 196.173 201.424 197.116 201.535C198.991 201.766 200.862 202.001 202.757 201.961C203.107 201.953 203.334 202.021 203.506 202.367C204.306 203.94 205.345 205.341 206.599 206.579C206.849 206.826 207.12 207.128 206.985 207.447C206.849 207.765 206.42 207.781 206.085 207.805C204.541 207.909 203.115 207.399 201.718 206.866C198.844 205.759 196.519 203.868 194.453 201.635C194.365 201.531 194.298 201.416 194.17 201.244Z" clip-rule="evenodd"/><path fill="#FEFEFE" fill-rule="evenodd" d="M90.415 200.17C88.4286 202.873 86.1833 205.062 83.2892 206.491C81.9118 207.172 80.4149 207.367 78.8823 207.216C78.3011 207.156 78.102 206.858 78.2931 206.288C78.5558 205.496 78.9101 204.764 79.5351 204.178C79.977 203.76 80.4348 203.326 80.7493 202.817C81.2987 201.929 82.075 201.607 83.0662 201.519C85.3274 201.312 87.5368 200.803 89.7343 200.257C89.9135 200.205 90.1085 200.205 90.415 200.17Z" clip-rule="evenodd"/><path fill="#FEFEFE" fill-rule="evenodd" d="M156.67 77.4969C155.631 74.6585 154.536 71.9873 153.083 69.4793C152.896 69.1648 152.92 68.918 153.131 68.6274C153.895 67.5605 154.444 66.3742 154.978 65.1839C155.193 64.7062 155.061 64.1767 155.252 63.695C155.352 63.4442 155.404 63.1417 155.71 63.0939C156.017 63.0461 156.212 63.2452 156.391 63.5079C157.287 64.8495 157.693 66.3463 157.884 67.9228C158.075 69.5191 158.087 71.1115 157.88 72.7039C157.669 74.3162 157.323 75.8847 156.67 77.4969Z" clip-rule="evenodd"/><path fill="#AB00A9" fill-rule="evenodd" d="M141.455 124.85C136.837 124.806 132.354 125.623 127.963 127.004C127.716 127.08 127.37 127.41 127.187 127.088C127.032 126.809 127.446 126.602 127.641 126.427C129.281 124.95 131.208 123.966 133.278 123.262C135.913 122.366 138.592 121.57 141.403 121.582C145.4 121.598 149.082 122.589 152 125.547C152.597 126.156 153.163 126.797 153.533 127.581C153.592 127.709 153.724 127.844 153.577 127.975C153.429 128.107 153.306 127.959 153.206 127.864C151.853 126.538 150.097 126.1 148.342 125.658C146.084 125.089 143.779 124.854 141.455 124.85Z" clip-rule="evenodd"/><path fill="#AB00A9" fill-rule="evenodd" d="M152.864 120.674C149.03 118.063 144.767 117.955 140.459 118.17C137.334 118.325 134.301 119.034 131.335 120.017C131.271 120.037 131.2 120.017 131.08 120.017C131.124 119.595 131.451 119.408 131.709 119.193C134.201 117.139 137.191 116.311 140.268 115.662C142.928 115.101 145.511 115.372 148.023 116.327C149.767 116.992 151.212 118.099 152.339 119.599C152.569 119.902 152.8 120.212 152.864 120.674Z" clip-rule="evenodd"/><path fill="#AB00A9" fill-rule="evenodd" d="M149.265 113.775C145.041 111.426 140.698 111.769 136.307 112.72C135.507 112.895 134.727 113.15 133.939 113.369C133.823 113.154 133.986 113.071 134.078 112.983C136.291 110.917 142.506 108.859 146.487 111.088C147.641 111.729 148.608 112.549 149.265 113.775Z" clip-rule="evenodd"/><path fill="#AB00A9" fill-rule="evenodd" d="M113.743 146.288C113.329 148.963 114.233 151.399 115.232 153.78C117.645 159.524 121.502 164.214 126.156 168.29C126.347 168.461 126.817 168.593 126.622 168.915C126.466 169.17 126.064 168.939 125.806 168.855C124.134 168.342 122.613 167.53 121.22 166.479C118.632 164.536 116.232 162.37 114.532 159.596C112.43 156.172 111.387 152.466 112.442 148.413C112.653 147.613 112.903 146.825 113.369 146.12C113.445 146.009 113.501 145.826 113.688 145.897C113.871 145.977 113.783 146.144 113.743 146.288Z" clip-rule="evenodd"/><path fill="#AB00A9" fill-rule="evenodd" d="M107.828 150.336C107.545 151.96 107.911 153.481 108.397 154.986C109.48 158.35 111.275 161.316 113.493 164.039C114.922 165.794 116.522 167.387 118.222 168.875C118.337 168.975 118.552 169.023 118.481 169.301C117.816 169.353 117.227 169.051 116.645 168.792C113.493 167.375 111.012 165.074 109.014 162.355C106.86 159.437 105.861 156.105 106.789 152.422C106.976 151.674 107.199 150.921 107.828 150.336Z" clip-rule="evenodd"/><path fill="#AB00A9" fill-rule="evenodd" d="M103.91 156.869C103.644 159.158 104.44 160.997 105.332 162.785C106.709 165.547 108.696 167.844 110.993 169.883C111.128 170.002 111.331 170.074 111.383 170.324C111.104 170.412 110.865 170.305 110.626 170.213C107.844 169.114 105.75 167.164 104.205 164.676C102.923 162.617 102.485 160.34 103.293 157.952C103.409 157.621 103.528 157.283 103.91 156.869Z" clip-rule="evenodd"/><path fill="#AB00A9" fill-rule="evenodd" d="M166.829 154.365C166.682 158.226 165.914 161.981 164.238 165.436C162.796 168.414 160.595 170.854 157.601 172.47C155.961 173.362 154.237 173.943 152.366 173.987C151.578 174.007 151.264 173.677 151.292 173.032C151.308 172.701 151.415 172.474 151.757 172.387C153.879 171.825 155.201 170.217 156.558 168.676C158.147 166.865 159.401 164.803 160.503 162.673C161.395 160.953 162.124 159.162 162.749 157.315C163.422 155.324 163.935 153.302 164.397 151.26C164.48 150.882 164.524 150.496 164.636 150.129C164.771 149.663 165.117 149.449 165.587 149.548C166.029 149.64 166.336 149.827 166.391 150.408C166.523 151.73 166.857 153.027 166.829 154.365Z" clip-rule="evenodd"/><path fill="#AB00A9" fill-rule="evenodd" d="M158.461 175.703C159.381 175.348 160.193 174.843 160.909 174.19C162.733 172.534 164.174 170.587 165.396 168.457C167.323 165.082 168.517 161.451 169.285 157.661C169.333 157.434 169.273 157.163 169.54 156.964C169.946 157.534 169.974 158.191 170.042 158.827C170.396 162.267 169.644 165.559 168.298 168.656C166.869 171.933 164.54 174.457 160.957 175.524C160.157 175.758 159.337 175.997 158.461 175.703Z" clip-rule="evenodd"/><path fill="#AB00A9" fill-rule="evenodd" d="M173.955 162.498C174.321 163.063 174.369 163.553 174.381 164.015C174.48 167.498 173.784 170.742 171.419 173.453C170.293 174.743 168.871 175.543 167.183 175.858C166.992 175.898 166.797 175.906 166.602 175.91C166.491 175.914 166.375 175.89 166.328 175.886C170.89 172.828 172.705 168.163 173.832 163.091C173.863 162.952 173.895 162.808 173.955 162.498Z" clip-rule="evenodd"/><path fill="#AB00A9" fill-rule="evenodd" d="M153.939 146.164C154.082 148.971 151.403 152.08 148.051 152.064C144.747 152.048 142.088 149.345 142.096 146.152C142.1 142.741 145.081 140.229 148.079 140.26C151.236 140.292 154.026 143.051 153.939 146.164Z" clip-rule="evenodd"/></svg>